<?xml version="1.0" encoding="UTF-8" standalone="no"?>
<!-- Created with Inkscape (http://www.inkscape.org/) -->

<svg
   width="128"
   height="128"
   viewBox="0 0 33.866665 33.866665"
   version="1.1"
   id="svg5"
   inkscape:version="1.1 (c4e8f9ed74, 2021-05-24)"
   sodipodi:docname="penumbra_6.svg"
   inkscape:export-filename="/home/till/projects/penumbra/penumbra_7.png"
   inkscape:export-xdpi="96.000008"
   inkscape:export-ydpi="96.000008"
   xmlns:inkscape="http://www.inkscape.org/namespaces/inkscape"
   xmlns:sodipodi="http://sodipodi.sourceforge.net/DTD/sodipodi-0.dtd"
   xmlns="http://www.w3.org/2000/svg"
   xmlns:svg="http://www.w3.org/2000/svg">
  <sodipodi:namedview
     id="namedview7"
     pagecolor="#505050"
     bordercolor="#eeeeee"
     borderopacity="1"
     inkscape:pageshadow="0"
     inkscape:pageopacity="0"
     inkscape:pagecheckerboard="0"
     inkscape:document-units="mm"
     showgrid="false"
     inkscape:snap-bbox="true"
     inkscape:bbox-paths="true"
     inkscape:snap-bbox-edge-midpoints="true"
     inkscape:bbox-nodes="true"
     inkscape:snap-bbox-midpoints="true"
     inkscape:object-paths="true"
     inkscape:snap-intersection-paths="true"
     inkscape:snap-center="true"
     inkscape:zoom="2"
     inkscape:cx="96.25"
     inkscape:cy="146.5"
     inkscape:window-width="2560"
     inkscape:window-height="1379"
     inkscape:window-x="0"
     inkscape:window-y="27"
     inkscape:window-maximized="1"
     inkscape:current-layer="layer1"
     inkscape:snap-global="true"
     fit-margin-top="0"
     fit-margin-left="0"
     fit-margin-right="0"
     fit-margin-bottom="0"
     units="px"
     inkscape:snap-page="true"
     inkscape:object-nodes="true"
     inkscape:snap-smooth-nodes="true"
     inkscape:snap-object-midpoints="true"
     inkscape:snap-midpoints="true"
     inkscape:snap-nodes="true" />
  <defs
     id="defs2" />
  <g
     inkscape:label="Ebene 1"
     inkscape:groupmode="layer"
     id="layer1"
     transform="translate(-26.650949,-35.636322)">
    <g
       id="g841"
       transform="matrix(0.12500001,0,0,0.12500001,23.301227,31.181781)"
       style="stroke-width:8">
      <rect
         style="fill:#24272b;fill-opacity:1;stroke:none;stroke-width:2.12;stroke-dasharray:2.12, 2.12;stroke-opacity:1;paint-order:stroke fill markers"
         id="rect4069"
         width="270.93332"
         height="270.93332"
         x="26.797775"
         y="35.636322" />
      <circle
         style="fill:#fff7ed;fill-opacity:1;stroke:none;stroke-width:2.11998;stroke-dasharray:2.11998, 2.11998;stroke-opacity:1;paint-order:stroke fill markers"
         id="circle892"
         cx="172.73457"
         cy="171.10297"
         r="81.409393" />
      <circle
         style="fill:#fff7ed;fill-opacity:1;stroke:none;stroke-width:2.11998;stroke-dasharray:2.11998, 2.11998;stroke-opacity:1;paint-order:stroke fill markers"
         id="circle18290"
         cx="172.73454"
         cy="171.10298"
         r="81.409393" />
      <path
         id="path18725"
         style="fill:#cb7459;fill-opacity:1;stroke:none;stroke-width:2.12;stroke-dasharray:2.12, 2.12;stroke-opacity:1;paint-order:stroke fill markers"
         d="m 139.74498,46.618242 c -6.8e-4,0.111836 0.002,0.223433 5e-4,0.335306 -0.008,0.75547 -0.0241,1.511502 -0.0506,2.269087 -0.0265,0.757574 -0.0627,1.516031 -0.10826,2.275445 -0.0456,0.759421 -0.10069,1.520229 -0.16557,2.281175 -0.0649,0.760954 -0.13974,1.522344 -0.22405,2.284538 -0.0843,0.762202 -0.1781,1.524611 -0.28204,2.287772 -0.10394,0.763144 -0.21756,1.526468 -0.34128,2.290272 -0.12372,0.763805 -0.2575,1.528254 -0.40118,2.292408 -0.14369,0.764176 -0.29763,1.528815 -0.46145,2.293045 -0.1638,0.764239 -0.33703,1.527907 -0.52114,2.291919 -0.18411,0.764012 -0.37875,1.527975 -0.58331,2.291461 -0.20459,0.76349 -0.41843,1.522186 -0.641,2.275886 -0.22256,0.753709 -0.45413,1.502558 -0.69439,2.246321 -0.24026,0.743753 -0.48913,1.482858 -0.74679,2.216492 -0.25763,0.733623 -0.52384,1.461556 -0.79859,2.184897 -0.27476,0.723334 -0.55806,1.441299 -0.84962,2.15417 -0.29156,0.712881 -0.59157,1.420931 -0.89965,2.12317 -0.30808,0.702243 -0.62431,1.39885 -0.94859,2.090271 -0.3243,0.691447 -0.65655,1.377773 -0.99678,2.058246 -0.34023,0.680465 -0.68834,1.355619 -1.04421,2.024945 -0.35585,0.669321 -0.7197,1.332368 -1.09092,1.99038 -0.055,0.0974 -0.11255,0.192838 -0.16786,0.290005 0.0972,-0.0553 0.19244,-0.113121 0.28988,-0.168082 0.65801,-0.371204 1.32121,-0.734961 1.99053,-1.090822 0.66932,-0.355862 1.34457,-0.703668 2.02504,-1.043898 0.68047,-0.34023 1.36648,-0.672772 2.05792,-0.997071 0.69144,-0.324299 1.38846,-0.640529 2.0907,-0.948604 0.70224,-0.30808 1.40972,-0.607816 2.12261,-0.89938 0.71287,-0.291559 1.43084,-0.574768 2.15417,-0.84952 0.72334,-0.274755 1.45173,-0.541375 2.18535,-0.799024 0.73364,-0.257648 1.47268,-0.506651 2.21643,-0.746901 0.74375,-0.240253 1.49232,-0.471816 2.24603,-0.694374 0.75371,-0.222558 1.5124,-0.436273 2.27588,-0.640848 0.76349,-0.204576 1.52738,-0.398854 2.29139,-0.582949 0.76401,-0.184114 1.52806,-0.357854 2.29231,-0.521669 0.76423,-0.163807 1.52877,-0.317699 2.29294,-0.461381 0.76416,-0.143685 1.52828,-0.276977 2.29208,-0.400701 0.7638,-0.123722 1.52717,-0.237442 2.29032,-0.341376 0.76315,-0.10394 1.52573,-0.198106 2.28793,-0.282421 0.7622,-0.08432 1.52396,-0.158972 2.2849,-0.223836 0.76095,-0.06487 1.52132,-0.119883 2.28074,-0.165469 0.75942,-0.04559 1.5181,-0.08201 2.27569,-0.108478 0.75758,-0.02648 1.51381,-0.04305 2.26927,-0.05059 0.11186,-0.0011 0.22326,0.0013 0.33507,6.29e-4 -0.0965,-0.05651 -0.19405,-0.110323 -0.29037,-0.167224 -0.65048,-0.384259 -1.29711,-0.776541 -1.93996,-1.17826 -0.64284,-0.40172 -1.28189,-0.812362 -1.91678,-1.231548 -0.63487,-0.419191 -1.26578,-0.847457 -1.89235,-1.284108 -0.62656,-0.43665 -1.24872,-0.881811 -1.86665,-1.33593 -0.61792,-0.454121 -1.23162,-0.916797 -1.84057,-1.388394 -0.59661,-0.462036 -1.18814,-0.933371 -1.77579,-1.412171 -0.012,-0.0098 -0.0245,-0.0189 -0.0366,-0.02872 -0.0119,-0.0096 -0.0233,-0.01952 -0.0351,-0.02911 -0.58779,-0.479861 -1.17112,-0.967468 -1.74959,-1.464131 -0.58995,-0.50652 -1.17555,-1.022029 -1.75549,-1.546011 -0.57994,-0.523984 -1.15428,-1.056363 -1.72388,-1.597813 -0.56959,-0.541455 -1.13415,-1.091563 -1.69307,-1.650475 -0.55891,-0.558909 -1.10909,-1.123824 -1.65053,-1.693437 -0.54145,-0.569595 -1.07429,-1.144074 -1.59828,-1.724022 -0.52398,-0.57994 -1.03914,-1.16529 -1.54565,-1.755244 -0.50651,-0.589938 -1.00395,-1.184717 -1.493,-1.784332 -0.48889,-0.599438 -0.96924,-1.204039 -1.44069,-1.81279 -1.5e-4,-1.78e-4 -5e-4,-1.88e-4 -6.4e-4,-3.66e-4 -0.47159,-0.608942 -0.93402,-1.222322 -1.38813,-1.840251 -0.45413,-0.61792 -0.89967,-1.239876 -1.33632,-1.866439 -0.43665,-0.626574 -0.86479,-1.257885 -1.28397,-1.89277 -0.41918,-0.634881 -0.82977,-1.273613 -1.23147,-1.916466 -0.40173,-0.642845 -0.7941,-1.289314 -1.17835,-1.939796 -0.0569,-0.09633 -0.11072,-0.194155 -0.16722,-0.290635 z"
         inkscape:transform-center-x="0.00022990406"
         inkscape:transform-center-y="-107.33589" />
      <path
         id="path18967"
         style="fill:#a38f2d;fill-opacity:1;stroke:none;stroke-width:2.12;stroke-dasharray:2.12, 2.12;stroke-opacity:1;paint-order:stroke fill markers"
         d="m 81.996545,79.978315 c 0.05534,0.09719 0.113486,0.192489 0.168117,0.290124 0.370815,0.658254 0.734883,1.321048 1.090726,1.990386 0.35584,0.669328 0.703712,1.344273 1.043969,2.024723 0.340214,0.680479 0.67291,1.366903 0.997197,2.05834 0.324271,0.691457 0.64015,1.38826 0.948239,2.090493 0.308091,0.702237 0.60806,1.409403 0.899633,2.122288 0.29154,0.712876 0.574829,1.430735 0.849574,2.154075 0.274775,0.72333 0.54113,1.452256 0.798783,2.185869 0.257659,0.73364 0.506645,1.472811 0.746897,2.216558 0.240284,0.743748 0.472073,1.491726 0.69463,2.245436 0.222558,0.753713 0.435957,1.512643 0.640531,2.276133 0.204559,0.76349 0.398724,1.52746 0.582836,2.29147 0.184115,0.76401 0.357958,1.52832 0.521839,2.29255 0.163782,0.76425 0.317802,1.52877 0.46151,2.29294 0.143674,0.76415 0.277121,1.52766 0.400854,2.29146 0.123704,0.76381 0.237355,1.52723 0.341292,2.29038 0.103961,0.76315 0.198141,1.52635 0.282465,2.28855 0.08432,0.7622 0.158756,1.52359 0.223629,2.28452 0.06487,0.76096 0.120289,1.52145 0.165893,2.28087 0.04558,0.75942 0.08168,1.51818 0.108147,2.27576 0.02649,0.75758 0.04291,1.51372 0.05043,2.26918 0.0011,0.11185 -10e-4,0.22328 -3.86e-4,0.33508 0.05654,-0.0965 0.110094,-0.19418 0.166994,-0.29049 0.384257,-0.65048 0.776722,-1.2971 1.178439,-1.93995 0.401718,-0.64285 0.812596,-1.28168 1.231789,-1.91657 0.419185,-0.63487 0.847027,-1.26588 1.28367,-1.89244 0.436659,-0.62657 0.882182,-1.24893 1.336306,-1.86685 0.454121,-0.61793 0.916962,-1.23125 1.388552,-1.8402 0.47157,-0.60893 0.95175,-1.21318 1.4408,-1.81279 0.48905,-0.59961 0.98655,-1.19471 1.49306,-1.78465 0.50652,-0.58995 1.02204,-1.17511 1.54604,-1.75505 0.52398,-0.57994 1.05647,-1.15476 1.59792,-1.72436 0.54146,-0.5696 1.09164,-1.13402 1.65055,-1.69293 0.55892,-0.55891 1.12332,-1.10911 1.69292,-1.65054 0.5696,-0.54146 1.14442,-1.07394 1.72437,-1.59794 0.57994,-0.52397 1.1651,-1.03952 1.75505,-1.54603 0.58995,-0.50652 1.18504,-1.00401 1.78465,-1.49306 0.59962,-0.489055 1.20385,-0.969216 1.81279,-1.440802 0.60893,-0.471588 1.22227,-0.93443 1.84019,-1.388548 0.61793,-0.454124 1.24031,-0.899654 1.86686,-1.336297 0.62658,-0.436657 1.25757,-0.864483 1.89245,-1.28367 0.63489,-0.419194 1.27372,-0.83008 1.91656,-1.231791 0.64286,-0.401724 1.28948,-0.794188 1.93996,-1.178448 0.0963,-0.05688 0.194,-0.110507 0.29049,-0.166994 -0.11182,-6.93e-4 -0.22321,0.0015 -0.33507,3.65e-4 -0.75546,-0.0075 -1.51161,-0.02395 -2.26919,-0.05043 -0.75758,-0.02647 -1.51633,-0.06258 -2.27575,-0.108158 -0.75941,-0.0456 -1.51992,-0.101034 -2.28088,-0.165896 -0.76095,-0.06487 -1.52233,-0.13931 -2.28453,-0.223624 -0.7622,-0.08432 -1.52502,-0.178159 -2.28817,-0.282103 -0.74771,-0.101824 -1.49565,-0.214253 -2.24398,-0.335076 -0.0152,-0.0026 -0.0307,-0.0041 -0.0461,-0.0066 -0.0151,-0.0024 -0.0299,-0.0053 -0.0449,-0.0077 -0.74898,-0.121676 -1.49796,-0.252291 -2.24726,-0.393179 -0.76418,-0.143683 -1.52907,-0.297327 -2.2933,-0.461141 -0.76423,-0.163816 -1.52782,-0.337701 -2.29184,-0.521805 -0.764,-0.184118 -1.52798,-0.378247 -2.29146,-0.582824 -0.7635,-0.20457 -1.52243,-0.418709 -2.27614,-0.641288 -0.7537,-0.222559 -1.5024,-0.453652 -2.246156,-0.693909 -0.743754,-0.240251 -1.482575,-0.489598 -2.2162,-0.74726 -0.733621,-0.257645 -1.461806,-0.524019 -2.185136,-0.798777 -0.723112,-0.274683 -1.441414,-0.558108 -2.154074,-0.849576 -2.1e-4,-8.5e-5 -5.26e-4,8.7e-5 -7.35e-4,10e-7 -0.712874,-0.291568 -1.420051,-0.591549 -2.122279,-0.899638 -0.702243,-0.308074 -1.399077,-0.623929 -2.090501,-0.948228 -0.691445,-0.3243 -1.377884,-0.656961 -2.05835,-0.997195 -0.680455,-0.340237 -1.355407,-0.688098 -2.024711,-1.043976 -0.669329,-0.355857 -1.332367,-0.719529 -1.990384,-1.090737 -0.09745,-0.05497 -0.192965,-0.112782 -0.29013,-0.168087 z" />
      <path
         id="path18969"
         style="fill:#46a473;fill-opacity:1;stroke:none;stroke-width:2.12;stroke-dasharray:2.12, 2.12;stroke-opacity:1;paint-order:stroke fill markers"
         d="m 48.661682,137.71305 c 0.09653,0.0565 0.194528,0.10996 0.290657,0.1672 0.650262,0.38466 1.296949,0.77662 1.939786,1.17836 0.64283,0.40173 1.281567,0.81232 1.916464,1.23148 0.634875,0.4192 1.26621,0.84732 1.892771,1.28398 0.626552,0.43668 1.248516,0.88219 1.866443,1.33629 0.617933,0.45411 1.2313,0.91656 1.840253,1.38815 0.608916,0.47159 1.213181,0.95163 1.812786,1.44069 0.599628,0.48904 1.194763,0.98713 1.784703,1.49363 0.589961,0.50652 1.175176,1.02217 1.755111,1.54614 0.579968,0.52397 1.154691,1.05584 1.724286,1.59729 0.569597,0.54146 1.133875,1.09202 1.692778,1.65092 0.558904,0.55893 1.109043,1.12347 1.650486,1.69305 0.541454,0.5696 1.074167,1.1446 1.598204,1.7245 0.523966,0.57997 1.039608,1.16505 1.546144,1.75498 0.506508,0.58995 1.003833,1.18445 1.492888,1.78405 0.489034,0.59962 0.969166,1.20393 1.440758,1.81288 0.471606,0.60892 0.934767,1.22279 1.388893,1.84071 0.454117,0.61792 0.899284,1.24009 1.335929,1.86664 0.436659,0.62657 0.864897,1.25746 1.2841,1.89234 0.419177,0.63488 0.829824,1.27394 1.231539,1.91679 0.401727,0.64283 0.794023,1.28946 1.178266,1.93995 0.05687,0.0963 0.110735,0.19388 0.167206,0.29039 7.11e-4,-0.11187 -0.0018,-0.22322 -6.26e-4,-0.33508 0.0075,-0.75546 0.02411,-1.51169 0.05059,-2.26926 0.02648,-0.75758 0.06289,-1.51627 0.108478,-2.27569 0.04559,-0.75942 0.100608,-1.5198 0.165469,-2.28074 0.06487,-0.76096 0.139526,-1.5227 0.223849,-2.2849 0.08432,-0.7622 0.178481,-1.52477 0.282419,-2.28792 0.10393,-0.76314 0.217654,-1.52653 0.341375,-2.29033 0.123724,-0.7638 0.257021,-1.52792 0.400706,-2.29208 0.143682,-0.76417 0.297564,-1.52869 0.46138,-2.29294 0.163814,-0.76424 0.337551,-1.52829 0.521666,-2.2923 0.184117,-0.76401 0.378374,-1.52791 0.582948,-2.29139 0.204579,-0.7635 0.418265,-1.52218 0.640844,-2.27587 0.222561,-0.75372 0.454124,-1.50228 0.694384,-2.24604 0.240248,-0.74375 0.489247,-1.48281 0.746898,-2.21643 0.257648,-0.73363 0.524268,-1.46203 0.799021,-2.18535 0.27476,-0.72336 0.557956,-1.4413 0.849526,-2.15417 0.291553,-0.71287 0.59129,-1.42038 0.899366,-2.12261 0.308083,-0.70225 0.624312,-1.39928 0.948599,-2.0907 0.324301,-0.69145 0.656854,-1.37745 0.997077,-2.05792 0.340224,-0.68047 0.688035,-1.35573 1.0439,-2.02504 0.355861,-0.66933 0.719618,-1.33253 1.090819,-1.99054 0.05495,-0.0974 0.112783,-0.19269 0.168089,-0.28985 -0.09717,0.0553 -0.192545,0.11288 -0.290002,0.16788 -0.658018,0.37119 -1.321065,0.73506 -1.990379,1.09092 -0.669331,0.35587 -1.34448,0.70397 -2.024948,1.0442 -0.680471,0.34022 -1.366805,0.67247 -2.058239,0.99678 -0.691435,0.32429 -1.388027,0.64052 -2.090277,0.94859 -0.702236,0.30808 -1.409778,0.60823 -2.122664,0.89978 -0.698442,0.2857 -1.402389,0.56228 -2.110876,0.83181 -0.01409,0.006 -0.02864,0.0118 -0.04309,0.0178 -0.01409,0.006 -0.02841,0.0107 -0.04277,0.0156 -0.709473,0.26909 -1.42342,0.53048 -2.142775,0.78311 -0.733637,0.25766 -1.472882,0.50705 -2.216629,0.7473 -0.74374,0.24028 -1.491983,0.47142 -2.245699,0.69398 -0.75371,0.22255 -1.512399,0.4364 -2.275883,0.64098 -0.763493,0.20458 -1.527814,0.39861 -2.29183,0.58272 -0.764002,0.18412 -1.527927,0.35837 -2.292174,0.52215 -0.764243,0.16379 -1.528746,0.31728 -2.292914,0.46096 -0.764159,0.14368 -1.527975,0.27708 -2.291771,0.4008 -0.763584,0.12365 -1.527356,0.23738 -2.290274,0.34129 -2.21e-4,3e-5 -4.11e-4,3.4e-4 -6.37e-4,3.7e-4 -0.76314,0.10395 -1.525569,0.19773 -2.287766,0.28202 -0.762198,0.0843 -1.523598,0.1592 -2.284536,0.22407 -0.76096,0.0649 -1.521763,0.12 -2.281183,0.16557 -0.759411,0.0456 -1.517868,0.0818 -2.275441,0.10825 -0.75758,0.0265 -1.513627,0.0431 -2.26909,0.0506 -0.111885,0.001 -0.223505,-0.001 -0.335311,-5.4e-4 z" />
      <path
         id="path18971"
         style="fill:#00a0be;fill-opacity:1;stroke:none;stroke-width:2.12;stroke-dasharray:2.12, 2.12;stroke-opacity:1;paint-order:stroke fill markers"
         d="m 48.645569,204.407 c 0.111864,6.7e-4 0.223454,-0.002 0.335323,-5.1e-4 0.755471,0.008 1.511499,0.0241 2.269085,0.0506 0.757571,0.0265 1.516026,0.0627 2.275442,0.10825 0.759423,0.0456 1.520231,0.1007 2.281181,0.16558 0.760947,0.0649 1.522341,0.13974 2.284534,0.22404 0.762199,0.0843 1.524614,0.17811 2.287778,0.28204 0.763134,0.10396 1.526461,0.21755 2.290264,0.34129 0.763813,0.12371 1.528258,0.25749 2.292412,0.40117 0.764183,0.14368 1.528817,0.29763 2.293042,0.46144 0.764252,0.16379 1.527913,0.33704 2.291921,0.52115 0.764013,0.18412 1.527976,0.37878 2.29145,0.58335 0.763489,0.2046 1.522193,0.41844 2.27589,0.64099 0.753711,0.22256 1.502553,0.45416 2.246332,0.69435 0.743752,0.24028 1.482849,0.48915 2.216488,0.74678 0.733621,0.25765 1.461569,0.52385 2.184906,0.7986 0.723323,0.27476 1.441288,0.55805 2.154171,0.84962 0.712885,0.29153 1.420926,0.59157 2.12317,0.89964 0.702236,0.30808 1.39885,0.62432 2.090268,0.9486 0.691446,0.3243 1.377756,0.65655 2.058236,0.99677 0.680457,0.34023 1.355621,0.68835 2.02494,1.04422 0.669321,0.35584 1.332376,0.7197 1.990382,1.09091 0.09741,0.055 0.192843,0.11254 0.289999,0.16788 -0.05532,-0.0972 -0.113121,-0.19244 -0.168082,-0.28987 -0.371204,-0.65802 -0.734965,-1.32122 -1.090826,-1.99054 -0.355858,-0.66931 -0.703665,-1.34456 -1.043899,-2.02504 -0.340227,-0.68046 -0.672769,-1.36649 -0.997069,-2.05791 -0.3243,-0.69145 -0.640514,-1.38846 -0.948586,-2.0907 -0.308084,-0.70225 -0.607816,-1.40973 -0.89938,-2.12261 -0.291568,-0.71287 -0.574772,-1.43084 -0.849523,-2.15417 -0.274758,-0.72334 -0.541378,-1.45174 -0.79902,-2.18535 -0.25766,-0.73364 -0.506649,-1.47267 -0.746906,-2.21644 -0.240256,-0.74376 -0.471816,-1.49231 -0.694374,-2.24602 -0.222558,-0.75371 -0.436273,-1.5124 -0.640846,-2.27588 -0.204577,-0.7635 -0.398866,-1.52738 -0.582949,-2.29139 -0.184114,-0.76401 -0.357857,-1.52807 -0.521672,-2.29232 -0.163807,-0.76422 -0.317698,-1.52876 -0.461379,-2.29292 -0.143687,-0.76417 -0.276983,-1.52829 -0.400704,-2.29209 -0.123727,-0.76382 -0.237441,-1.52717 -0.341372,-2.29032 -0.103947,-0.76314 -0.198113,-1.52572 -0.282431,-2.28792 -0.08431,-0.7622 -0.15897,-1.52397 -0.223842,-2.2849 -0.06487,-0.76096 -0.119868,-1.52133 -0.165461,-2.28074 -0.0456,-0.75943 -0.08201,-1.51813 -0.10848,-2.2757 -0.02648,-0.75758 -0.04305,-1.51381 -0.05059,-2.26926 -0.0011,-0.11187 0.0013,-0.22326 6.41e-4,-0.33506 -0.05649,0.0965 -0.110309,0.19403 -0.167211,0.29038 -0.384262,0.65048 -0.776543,1.29712 -1.178258,1.93996 -0.401723,0.64286 -0.812368,1.28189 -1.231555,1.91678 -0.419193,0.63488 -0.847453,1.26578 -1.284099,1.89235 -0.436653,0.62656 -0.881803,1.24873 -1.335934,1.86665 -0.454115,0.61792 -0.916794,1.23162 -1.388394,1.84056 -0.462016,0.59665 -0.933363,1.18814 -1.412169,1.7758 -0.0093,0.0118 -0.0189,0.0245 -0.02844,0.0369 -0.0094,0.0118 -0.01925,0.0235 -0.02924,0.0349 -0.479874,0.58778 -0.967478,1.17112 -1.464141,1.74958 -0.506519,0.58996 -1.022029,1.17556 -1.546008,1.7555 -0.523956,0.57996 -1.056386,1.15425 -1.597844,1.72385 -0.541453,0.56959 -1.091573,1.13413 -1.650481,1.69304 -0.558914,0.55892 -1.12382,1.10912 -1.693421,1.65057 -0.569587,0.54145 -1.14404,1.07432 -1.724005,1.59829 -0.579963,0.52396 -1.165295,1.03914 -1.755243,1.54566 -0.589946,0.50649 -1.184727,1.00393 -1.784333,1.49298 -0.59946,0.48888 -1.20404,0.96925 -1.812792,1.4407 -1.78e-4,1.3e-4 -1.87e-4,5e-4 -3.67e-4,6.4e-4 -0.60892,0.4716 -1.222315,0.93403 -1.840252,1.38812 -0.617918,0.45414 -1.239874,0.89967 -1.86643,1.33632 -0.626575,0.43666 -1.257887,0.86481 -1.892777,1.28398 -0.634883,0.41917 -1.273616,0.82977 -1.916465,1.23147 -0.64284,0.40173 -1.289314,0.7941 -1.939798,1.17835 -0.09635,0.0569 -0.194157,0.11072 -0.290647,0.16722 z" />
      <path
         id="path18973"
         style="fill:#7e87d6;fill-opacity:1;stroke:none;stroke-width:2.12;stroke-dasharray:2.12, 2.12;stroke-opacity:1;paint-order:stroke fill markers"
         d="m 82.004032,262.20221 c 0.09721,-0.0553 0.192508,-0.11349 0.290139,-0.16812 0.658254,-0.37081 1.321045,-0.73488 1.990385,-1.09072 0.669322,-0.35584 1.344268,-0.70371 2.024717,-1.04397 0.680484,-0.34022 1.366907,-0.67291 2.05835,-0.9972 0.691447,-0.32427 1.388257,-0.64015 2.090486,-0.94824 0.702236,-0.30809 1.409409,-0.60806 2.122294,-0.89963 0.712872,-0.29154 1.430726,-0.57484 2.154069,-0.84957 0.723334,-0.27478 1.452257,-0.54114 2.185872,-0.79879 0.733642,-0.25766 1.472813,-0.50664 2.216555,-0.74689 0.743754,-0.24029 1.491731,-0.47208 2.245441,-0.69464 0.75371,-0.22255 1.51265,-0.43595 2.27612,-0.64053 0.7635,-0.20455 1.52748,-0.39872 2.29147,-0.58283 0.76402,-0.18412 1.52834,-0.35796 2.29256,-0.52184 0.76425,-0.16378 1.52876,-0.3178 2.29293,-0.46152 0.76416,-0.14367 1.52768,-0.27711 2.29148,-0.40085 0.7638,-0.1237 1.52722,-0.23735 2.29038,-0.34129 0.76314,-0.10396 1.52634,-0.19814 2.28854,-0.28246 0.76219,-0.0843 1.5236,-0.15876 2.28453,-0.22363 0.76095,-0.0649 1.52143,-0.12029 2.28086,-0.16589 0.75941,-0.0456 1.51818,-0.0817 2.27575,-0.10815 0.75758,-0.0265 1.51372,-0.0429 2.26918,-0.0504 0.11185,-10e-4 0.22328,0.001 0.33509,3.8e-4 -0.0965,-0.0565 -0.19419,-0.1101 -0.29051,-0.167 -0.65047,-0.38426 -1.29709,-0.77672 -1.93994,-1.17844 -0.64285,-0.40172 -1.28168,-0.8126 -1.91657,-1.23179 -0.63487,-0.41918 -1.26588,-0.84703 -1.89244,-1.28367 -0.62657,-0.43666 -1.24892,-0.88218 -1.86684,-1.33631 -0.61794,-0.45412 -1.23125,-0.91695 -1.84019,-1.38853 -0.60894,-0.47159 -1.21319,-0.95177 -1.8128,-1.44081 -0.59962,-0.48905 -1.19471,-0.98655 -1.78464,-1.49306 -0.58997,-0.50652 -1.17511,-1.02204 -1.75507,-1.54604 -0.57994,-0.52399 -1.15476,-1.05648 -1.72435,-1.59793 -0.5696,-0.54145 -1.13402,-1.09164 -1.69293,-1.65054 -0.55892,-0.55892 -1.10912,-1.12332 -1.65054,-1.69293 -0.54146,-0.5696 -1.07395,-1.14441 -1.59794,-1.72437 -0.52398,-0.57993 -1.03952,-1.1651 -1.54603,-1.75505 -0.50652,-0.58994 -1.00402,-1.18504 -1.49306,-1.78464 -0.48907,-0.59963 -0.96922,-1.20385 -1.4408,-1.8128 -0.47159,-0.60892 -0.934436,-1.22226 -1.388555,-1.84018 -0.45412,-0.61793 -0.899654,-1.2403 -1.336303,-1.86686 -0.436659,-0.62657 -0.864471,-1.25757 -1.283663,-1.89244 -0.419202,-0.63489 -0.830087,-1.27373 -1.231796,-1.91658 -0.401721,-0.64284 -0.79419,-1.28946 -1.178441,-1.93994 -0.05692,-0.0963 -0.11048,-0.19401 -0.166974,-0.29049 -6.64e-4,0.11181 0.0015,0.22319 3.77e-4,0.33508 -0.0075,0.75546 -0.02394,1.51162 -0.05042,2.26918 -0.02647,0.7576 -0.06258,1.51634 -0.108166,2.27576 -0.04559,0.75942 -0.101028,1.51992 -0.165888,2.28088 -0.06487,0.76094 -0.139302,1.52232 -0.223628,2.28453 -0.08432,0.76219 -0.178155,1.52501 -0.282104,2.28817 -0.101794,0.74771 -0.214243,1.49564 -0.335071,2.24397 -0.0022,0.0149 -0.0041,0.0307 -0.0062,0.0462 -0.0022,0.0149 -0.0049,0.03 -0.0079,0.0448 -0.121694,0.74897 -0.252302,1.49795 -0.393193,2.24725 -0.143677,0.76418 -0.297323,1.52908 -0.461134,2.29331 -0.163778,0.76424 -0.337732,1.5278 -0.521849,2.29182 -0.184112,0.76401 -0.378262,1.52797 -0.582836,2.29146 -0.204572,0.7635 -0.418696,1.52244 -0.64126,2.27615 -0.222553,0.7537 -0.45361,1.5024 -0.693889,2.24615 -0.240284,0.74375 -0.489607,1.48257 -0.747257,2.2162 -0.257659,0.73362 -0.524034,1.4618 -0.798787,2.18513 -0.274706,0.72312 -0.5581,1.44142 -0.849571,2.15408 -8.6e-5,2.1e-4 8.7e-5,5.3e-4 10e-7,7.4e-4 -0.29154,0.71288 -0.591543,1.42005 -0.899643,2.12228 -0.308066,0.70225 -0.623929,1.39907 -0.948216,2.0905 -0.3243,0.69144 -0.656961,1.37788 -0.997203,2.05835 -0.340238,0.68045 -0.6881,1.35541 -1.043975,2.02471 -0.35585,0.66933 -0.719529,1.33237 -1.090738,1.99038 -0.055,0.0975 -0.112783,0.19297 -0.168096,0.29015 z" />
      <path
         id="path18975"
         style="fill:#bd72a8;fill-opacity:1;stroke:none;stroke-width:2.12;stroke-dasharray:2.12, 2.12;stroke-opacity:1;paint-order:stroke fill markers"
         d="m 140.12499,295.63069 c 0.0565,-0.0965 0.10996,-0.19454 0.1672,-0.29067 0.38466,-0.65026 0.77662,-1.29694 1.17836,-1.93979 0.40173,-0.64283 0.81232,-1.28156 1.23147,-1.91646 0.41921,-0.63487 0.84732,-1.2662 1.28399,-1.89277 0.43668,-0.62655 0.88218,-1.24851 1.33629,-1.86644 0.45411,-0.61794 0.91656,-1.23131 1.38815,-1.84026 0.47159,-0.60891 0.95162,-1.21318 1.44069,-1.81278 0.48903,-0.59963 0.98712,-1.19477 1.49363,-1.7847 0.50651,-0.58996 1.02217,-1.17518 1.54614,-1.75512 0.52397,-0.57996 1.05583,-1.15468 1.59729,-1.72428 0.54145,-0.56959 1.09202,-1.13388 1.65092,-1.69278 0.55893,-0.5589 1.12347,-1.10904 1.69305,-1.65048 0.56959,-0.54145 1.1446,-1.07418 1.7245,-1.59821 0.57996,-0.52396 1.16504,-1.03961 1.75496,-1.54615 0.58995,-0.5065 1.18446,-1.00383 1.78407,-1.49288 0.59962,-0.48904 1.20393,-0.96917 1.81287,-1.44076 0.60892,-0.4716 1.22279,-0.93476 1.84071,-1.3889 0.61792,-0.45411 1.2401,-0.89928 1.86664,-1.33593 0.62658,-0.43666 1.25747,-0.86489 1.89235,-1.28409 0.63488,-0.41918 1.27394,-0.82983 1.91678,-1.23153 0.64283,-0.40174 1.28947,-0.79403 1.93995,-1.17828 0.0963,-0.0569 0.19388,-0.11075 0.2904,-0.16715 -0.11186,-6.8e-4 -0.22322,0.002 -0.33507,6.4e-4 -0.75546,-0.008 -1.51169,-0.0241 -2.26927,-0.0506 -0.75757,-0.0265 -1.51626,-0.0629 -2.27569,-0.10848 -0.75941,-0.0456 -1.51979,-0.1006 -2.28074,-0.16547 -0.76096,-0.0649 -1.52268,-0.13953 -2.28488,-0.22385 -0.76221,-0.0843 -1.52477,-0.17849 -2.28792,-0.28242 -0.76315,-0.10392 -1.52654,-0.21765 -2.29034,-0.34137 -0.76381,-0.12373 -1.52792,-0.25702 -2.29207,-0.4007 -0.76419,-0.14369 -1.52869,-0.29757 -2.29295,-0.46138 -0.76424,-0.16382 -1.5283,-0.33756 -2.2923,-0.52168 -0.76402,-0.18411 -1.52791,-0.37837 -2.29139,-0.58295 -0.7635,-0.20457 -1.52219,-0.41826 -2.27588,-0.64084 -0.75371,-0.22256 -1.50227,-0.45412 -2.24604,-0.69437 -0.74374,-0.24025 -1.4828,-0.48926 -2.21643,-0.74691 -0.73362,-0.25764 -1.46202,-0.52426 -2.18535,-0.79901 -0.72335,-0.27476 -1.44129,-0.55796 -2.15416,-0.84953 -0.71287,-0.29155 -1.42038,-0.59129 -2.12261,-0.89937 -0.70225,-0.30808 -1.39927,-0.62431 -2.09071,-0.94859 -0.69144,-0.32431 -1.37744,-0.65686 -2.05791,-0.99708 -0.68048,-0.34022 -1.35574,-0.68803 -2.02505,-1.0439 -0.66932,-0.35586 -1.33252,-0.71962 -1.99052,-1.09082 -0.0975,-0.055 -0.19269,-0.11279 -0.28985,-0.16809 0.0553,0.0972 0.11287,0.19253 0.16788,0.29002 0.3712,0.65802 0.73507,1.32106 1.09093,1.99038 0.35587,0.66933 0.70396,1.34448 1.0442,2.02494 0.34023,0.68047 0.67246,1.36681 0.99677,2.05824 0.3243,0.69144 0.64053,1.38803 0.94861,2.09028 0.30808,0.70223 0.60821,1.40978 0.89977,2.12266 0.28571,0.69844 0.56228,1.4024 0.83181,2.11088 0.006,0.0139 0.0118,0.0286 0.0177,0.0431 0.006,0.0139 0.0107,0.0284 0.0156,0.0427 0.2691,0.70948 0.53047,1.42343 0.7831,2.14277 0.25766,0.73365 0.50705,1.4729 0.7473,2.21664 0.24029,0.74374 0.47142,1.49199 0.69398,2.2457 0.22256,0.75371 0.43641,1.5124 0.64098,2.27588 0.20459,0.76349 0.39861,1.52782 0.58273,2.29183 0.18411,0.76401 0.35837,1.52793 0.52215,2.29218 0.16378,0.76424 0.31728,1.52873 0.46095,2.2929 0.14368,0.76417 0.27708,1.52799 0.4008,2.29178 0.12364,0.76359 0.23738,1.52735 0.34129,2.29028 3e-5,2.2e-4 3.4e-4,4e-4 3.7e-4,6.3e-4 0.10396,0.76314 0.19773,1.52557 0.28203,2.28776 0.0843,0.76221 0.15919,1.52361 0.22407,2.28454 0.0649,0.76096 0.11999,1.52177 0.16557,2.28119 0.0456,0.75941 0.0818,1.51787 0.10824,2.27544 0.0265,0.75758 0.0431,1.51363 0.0506,2.26909 0.001,0.1119 -0.001,0.22351 -5.3e-4,0.33532 z" />
      <circle
         style="fill:#303338;fill-opacity:1;stroke:none;stroke-width:2.12;stroke-dasharray:2.12, 2.12;paint-order:stroke fill markers"
         id="path846"
         cx="183.58987"
         cy="171.10297"
         r="79.291122" />
    </g>
  </g>
</svg>
