<?xml version="1.0" encoding="UTF-8" standalone="no"?>
<!-- Created with Inkscape (http://www.inkscape.org/) -->

<svg
   width="128"
   height="128"
   viewBox="0 0 33.866665 33.866665"
   version="1.1"
   id="svg5"
   inkscape:version="1.1 (c4e8f9ed74, 2021-05-24)"
   sodipodi:docname="penumbra_7.svg"
   inkscape:export-filename="/home/till/projects/penumbra/penumbra_7.png"
   inkscape:export-xdpi="96.000008"
   inkscape:export-ydpi="96.000008"
   xmlns:inkscape="http://www.inkscape.org/namespaces/inkscape"
   xmlns:sodipodi="http://sodipodi.sourceforge.net/DTD/sodipodi-0.dtd"
   xmlns="http://www.w3.org/2000/svg"
   xmlns:svg="http://www.w3.org/2000/svg">
  <sodipodi:namedview
     id="namedview7"
     pagecolor="#505050"
     bordercolor="#eeeeee"
     borderopacity="1"
     inkscape:pageshadow="0"
     inkscape:pageopacity="0"
     inkscape:pagecheckerboard="0"
     inkscape:document-units="mm"
     showgrid="false"
     inkscape:snap-bbox="true"
     inkscape:bbox-paths="true"
     inkscape:snap-bbox-edge-midpoints="true"
     inkscape:bbox-nodes="true"
     inkscape:snap-bbox-midpoints="true"
     inkscape:object-paths="true"
     inkscape:snap-intersection-paths="true"
     inkscape:snap-center="true"
     inkscape:zoom="0.70710678"
     inkscape:cx="232.63813"
     inkscape:cy="445.47727"
     inkscape:window-width="2560"
     inkscape:window-height="1379"
     inkscape:window-x="0"
     inkscape:window-y="27"
     inkscape:window-maximized="1"
     inkscape:current-layer="layer1"
     inkscape:snap-global="true"
     fit-margin-top="0"
     fit-margin-left="0"
     fit-margin-right="0"
     fit-margin-bottom="0"
     units="px"
     inkscape:snap-page="true"
     inkscape:object-nodes="true"
     inkscape:snap-smooth-nodes="true"
     inkscape:snap-object-midpoints="true"
     inkscape:snap-midpoints="true"
     inkscape:snap-nodes="true" />
  <defs
     id="defs2" />
  <g
     inkscape:label="Ebene 1"
     inkscape:groupmode="layer"
     id="layer1"
     transform="translate(-26.797775,-35.636318)">
    <g
       id="g843"
       transform="matrix(0.12500001,0,0,0.12500001,23.448053,31.181778)"
       style="stroke-width:8">
      <rect
         style="fill:#24272b;fill-opacity:1;stroke:none;stroke-width:2.11999;stroke-dasharray:2.11999, 2.11999;stroke-opacity:1;paint-order:stroke fill markers"
         id="rect4069"
         width="270.93332"
         height="270.93332"
         x="26.797775"
         y="35.636318" />
      <circle
         style="fill:#fff7ed;fill-opacity:1;stroke:none;stroke-width:2.11998;stroke-dasharray:2.11998, 2.11998;stroke-opacity:1;paint-order:stroke fill markers"
         id="circle892"
         cx="172.73457"
         cy="171.10297"
         r="81.409393" />
      <circle
         style="fill:#fff7ed;fill-opacity:1;stroke:none;stroke-width:2.11998;stroke-dasharray:2.11998, 2.11998;stroke-opacity:1;paint-order:stroke fill markers"
         id="circle18290"
         cx="172.73454"
         cy="171.10298"
         r="81.409393" />
      <circle
         style="fill:#303338;fill-opacity:1;stroke:none;stroke-width:2.11999;stroke-dasharray:2.11999, 2.11999;paint-order:stroke fill markers"
         id="path846"
         cx="183.58987"
         cy="171.10297"
         r="79.291122" />
      <path
         id="path18725"
         style="fill:#ca7081;fill-opacity:1;stroke:none;stroke-width:2.11999;stroke-dasharray:2.11999, 2.11999;stroke-opacity:1;paint-order:stroke fill markers"
         d="m 172.73454,42.268991 c -0.0296,0.10785 -0.0562,0.216257 -0.0863,0.324011 -0.20281,0.727777 -0.41448,1.453762 -0.63614,2.178678 -0.22165,0.724908 -0.45291,1.448154 -0.6935,2.169892 -0.24058,0.721747 -0.49073,1.442366 -0.75034,2.160593 -0.2596,0.718238 -0.52899,1.434304 -0.8077,2.148705 -0.27872,0.714407 -0.56663,1.426565 -0.86455,2.13682 -0.29791,0.71024 -0.60522,1.418148 -0.92242,2.123903 -0.31719,0.705758 -0.64426,1.409536 -0.98082,2.110465 -0.33658,0.700947 -0.68318,1.399688 -1.03921,2.095479 -0.35602,0.695804 -0.721,1.388615 -1.09658,2.078942 -0.37558,0.690327 -0.76131,1.377884 -1.15651,2.062409 -0.39522,0.684524 -0.79814,1.362022 -1.2082,2.032434 -0.41005,0.670425 -0.82755,1.333822 -1.25212,1.990058 -0.42457,0.656227 -0.85625,1.305737 -1.29501,1.947685 -0.43873,0.641945 -0.88427,1.276175 -1.33687,1.903759 -0.45261,0.627573 -0.91208,1.247751 -1.37821,1.86087 -0.46614,0.613127 -0.93918,1.219404 -1.41852,1.817976 -0.47933,0.59858 -0.96508,1.189604 -1.45727,1.773534 -0.49221,0.583951 -0.99077,1.160899 -1.49552,1.730129 -0.50476,0.569219 -1.01575,1.131271 -1.53273,1.685684 -0.51696,0.554413 -1.04002,1.100696 -1.56889,1.64021 -0.0783,0.07986 -0.15863,0.157136 -0.2372,0.236678 0.10818,-0.02826 0.21516,-0.05946 0.3235,-0.08733 0.73167,-0.188248 1.46641,-0.367964 2.20503,-0.538466 0.73862,-0.170503 1.48088,-0.33169 2.22622,-0.484209 0.74534,-0.152519 1.49405,-0.296175 2.24586,-0.430467 0.75181,-0.134292 1.50693,-0.259344 2.26498,-0.375168 0.75805,-0.115829 1.519,-0.222242 2.28306,-0.319363 0.76404,-0.09712 1.53084,-0.184856 2.30064,-0.263033 0.7698,-0.07818 1.54238,-0.147193 2.31769,-0.206187 0.77532,-0.05899 1.55363,-0.10823 2.33422,-0.147796 0.78059,-0.03957 1.56358,-0.0695 2.34921,-0.0894 0.78563,-0.0199 1.57378,-0.02997 2.3642,-0.02997 0.79042,0 1.57856,0.01005 2.36419,0.02997 0.78563,0.0199 1.56861,0.04983 2.34922,0.0894 0.78058,0.03957 1.5589,0.0888 2.33422,0.147796 0.77531,0.05899 1.54789,0.128008 2.31769,0.206187 0.7698,0.07818 1.53659,0.16591 2.30063,0.263033 0.76405,0.09712 1.52502,0.203534 2.28307,0.319363 0.75805,0.115824 1.51318,0.240876 2.26498,0.375168 0.75181,0.134292 1.50051,0.277948 2.24585,0.430467 0.74534,0.152519 1.4876,0.313703 2.22622,0.484209 0.73862,0.170502 1.47337,0.350218 2.20504,0.538466 0.10834,0.02788 0.21531,0.05907 0.32349,0.08733 -0.0786,-0.07956 -0.15888,-0.156787 -0.23719,-0.236678 -0.52886,-0.539522 -1.05193,-1.085799 -1.5689,-1.64021 -0.51697,-0.554413 -1.02796,-1.11646 -1.53272,-1.685684 -0.50475,-0.569225 -1.00331,-1.146188 -1.49552,-1.730129 -0.4922,-0.583938 -0.97794,-1.174957 -1.45728,-1.773534 -0.47933,-0.598577 -0.95237,-1.204325 -1.41851,-1.81746 -0.4567,-0.600707 -0.90608,-1.20908 -1.34979,-1.823662 -0.009,-0.0126 -0.0188,-0.0246 -0.0279,-0.03721 -0.009,-0.0123 -0.0175,-0.0249 -0.0264,-0.03721 -0.44356,-0.61564 -0.88081,-1.237609 -1.31103,-1.867069 -0.43875,-0.641951 -0.87097,-1.291458 -1.29553,-1.947685 -0.42456,-0.656228 -0.84154,-1.319117 -1.2516,-1.989543 -0.41004,-0.670425 -0.81299,-1.347909 -1.2082,-2.032433 -0.39521,-0.684522 -0.78044,-1.372587 -1.156,-2.062925 -0.37558,-0.690324 -0.74158,-1.383138 -1.09761,-2.078942 -0.35603,-0.695796 -0.70213,-1.394532 -1.03869,-2.095479 -0.33657,-0.700932 -0.66312,-1.404191 -0.98031,-2.109949 -0.31709,-0.705548 -0.62459,-1.413872 -0.92242,-2.1239 -9e-5,-2.09e-4 -4.3e-4,-3.1e-4 -5.2e-4,-5.19e-4 -0.29791,-0.710247 -0.58583,-1.422413 -0.86454,-2.13682 -0.27872,-0.714401 -0.54811,-1.43048 -0.80771,-2.148705 -0.25961,-0.71824 -0.50976,-1.438849 -0.75034,-2.160593 -0.24058,-0.721741 -0.47186,-1.444976 -0.69349,-2.169892 -0.22166,-0.724916 -0.43334,-1.450909 -0.63614,-2.178678 -0.03,-0.107764 -0.0567,-0.216196 -0.0863,-0.324011 z"
         inkscape:transform-center-x="0.00022990406"
         inkscape:transform-center-y="-107.33589" />
      <path
         id="path18967"
         style="fill:#c27d40;fill-opacity:1;stroke:none;stroke-width:2.11999;stroke-dasharray:2.11999, 2.11999;stroke-opacity:1;paint-order:stroke fill markers"
         d="m 108.31961,59.545952 c 0.0283,0.1082 0.0598,0.215303 0.0873,0.32375 0.18781,0.731799 0.36793,1.466236 0.53841,2.204866 0.17048,0.738619 0.33181,1.480602 0.48436,2.225931 0.1525,0.745346 0.2962,1.494489 0.43048,2.246298 0.13426,0.751823 0.25903,1.506639 0.37487,2.264683 0.11584,0.758049 0.22256,1.518757 0.31969,2.282815 0.0971,0.764042 0.18494,1.530761 0.26311,2.300563 0.0782,0.7698 0.14682,1.542826 0.20582,2.318127 0.059,0.775329 0.10819,1.553756 0.14776,2.334342 0.0396,0.780596 0.0699,1.563078 0.0898,2.348708 0.0199,0.78563 0.0296,1.573936 0.0296,2.364353 -2e-5,0.790427 -0.0102,1.578617 -0.0301,2.36424 -0.0199,0.78563 -0.0498,1.568898 -0.0893,2.3495 -0.0396,0.780595 -0.0887,1.558926 -0.14767,2.334252 -0.059,0.775305 -0.12771,1.547334 -0.20588,2.317136 -0.0782,0.769799 -0.16601,1.536624 -0.26313,2.300666 -0.0971,0.764054 -0.20366,1.525626 -0.31948,2.283674 -0.11583,0.758052 -0.24099,1.512772 -0.37527,2.264562 -0.13429,0.75182 -0.27759,1.500742 -0.43009,2.246082 -0.15253,0.74534 -0.31404,1.48759 -0.48455,2.22621 -0.17049,0.73862 -0.35033,1.47325 -0.53859,2.20491 -0.0279,0.10832 -0.0588,0.2154 -0.0871,0.32357 0.0796,-0.0786 0.1566,-0.15907 0.23649,-0.23738 0.53952,-0.52886 1.08597,-1.05187 1.64038,-1.56884 0.55441,-0.51697 1.11663,-1.02769 1.68586,-1.53245 0.56922,-0.50475 1.1458,-1.00352 1.72973,-1.49572 0.58395,-0.49221 1.17537,-0.97805 1.77395,-1.457382 0.59858,-0.47934 1.20438,-0.95197 1.81751,-1.41811 0.61311,-0.46613 1.23332,-0.925512 1.86089,-1.378114 0.62758,-0.452607 1.26215,-0.898664 1.90409,-1.337408 0.64195,-0.438749 1.29136,-0.870545 1.9476,-1.295108 0.65623,-0.424563 1.31935,-0.841978 1.98977,-1.252027 0.67043,-0.410049 1.34795,-0.812845 2.03247,-1.208053 0.68453,-0.39521 1.3721,-0.780578 2.06243,-1.15614 0.69033,-0.375581 1.38338,-0.741152 2.07919,-1.097187 0.69579,-0.356024 1.39445,-0.702549 2.09539,-1.039117 0.70094,-0.336568 1.40452,-0.663087 2.11027,-0.980281 0.70577,-0.317196 1.41368,-0.624612 2.12393,-0.922522 0.71024,-0.297916 1.42247,-0.586244 2.13687,-0.864958 0.71441,-0.278719 1.43089,-0.547985 2.14911,-0.807585 0.71824,-0.259608 1.43846,-0.509544 2.1602,-0.750129 0.72175,-0.240589 1.44516,-0.472132 2.17007,-0.693775 0.72492,-0.221654 1.45109,-0.433386 2.17886,-0.636196 0.10776,-0.03001 0.21599,-0.05653 0.32381,-0.08612 -0.10783,-0.02961 -0.21599,-0.05634 -0.32375,-0.08637 -0.72776,-0.202812 -1.4539,-0.414365 -2.17881,-0.636016 -0.72492,-0.22165 -1.44847,-0.452901 -2.17022,-0.693482 -0.72173,-0.240591 -1.44198,-0.490975 -2.16022,-0.750577 -0.71823,-0.259606 -1.4344,-0.528571 -2.14881,-0.807285 -0.7144,-0.278717 -1.42694,-0.566791 -2.13719,-0.864713 -0.69588,-0.291876 -1.38923,-0.594054 -2.08079,-0.904442 -0.014,-0.0064 -0.0286,-0.01192 -0.0428,-0.01827 -0.014,-0.0062 -0.0275,-0.01282 -0.0414,-0.01903 -0.69196,-0.311379 -1.38162,-0.631395 -2.06892,-0.961415 -0.70095,-0.33657 -1.40002,-0.682949 -2.09581,-1.038978 -0.69579,-0.356032 -1.38835,-0.721621 -2.07869,-1.097196 -0.69032,-0.375584 -1.37802,-0.760829 -2.06254,-1.15604 -0.68453,-0.395206 -1.36218,-0.798474 -2.0326,-1.208544 -0.67042,-0.410048 -1.33379,-0.827043 -1.99002,-1.251611 -0.65623,-0.424563 -1.30534,-0.856634 -1.94728,-1.295393 -0.64194,-0.438741 -1.27637,-0.884506 -1.90394,-1.337114 -0.62738,-0.452479 -1.24785,-0.912156 -1.86079,-1.378143 -1.8e-4,-1.36e-4 -5.3e-4,-5.2e-5 -7.1e-4,-1.89e-4 -0.61312,-0.466138 -1.21856,-0.938929 -1.81712,-1.41827 -0.59858,-0.47933 -1.18992,-0.964777 -1.77385,-1.456979 -0.58395,-0.492209 -1.1609,-0.991198 -1.73012,-1.495957 -0.56921,-0.504758 -1.13113,-1.015456 -1.68552,-1.532437 -0.55442,-0.516966 -1.10074,-1.039853 -1.64026,-1.56872 -0.0799,-0.07832 -0.1572,-0.158882 -0.23674,-0.237451 z" />
      <path
         id="path18969"
         style="fill:#92963a;fill-opacity:1;stroke:none;stroke-width:2.11999;stroke-dasharray:2.11999, 2.11999;stroke-opacity:1;paint-order:stroke fill markers"
         d="m 61.177755,106.68573 c 0.07861,0.0796 0.15944,0.15656 0.237479,0.23673 0.528548,0.53985 1.051753,1.08583 1.568708,1.64026 0.51695,0.55442 1.027656,1.11633 1.532433,1.68553 0.504744,0.56924 1.003762,1.14617 1.495957,1.73012 0.492182,0.58396 0.977646,1.17527 1.456987,1.77383 0.479345,0.59857 0.952122,1.20401 1.418269,1.81714 0.466111,0.61312 0.925543,1.2332 1.37814,1.86078 0.452624,0.62757 0.898565,1.26272 1.337311,1.90465 0.43876,0.64196 0.870575,1.2915 1.295134,1.94772 0.424594,0.65622 0.842075,1.31872 1.252124,1.98914 0.410049,0.67043 0.812604,1.34828 1.207809,2.03279 0.395198,0.68454 0.780477,1.37223 1.156053,2.06254 0.375581,0.69033 0.741322,1.38361 1.097414,2.07938 0.356005,0.69582 0.702648,1.39442 1.039239,2.09535 0.336559,0.70094 0.66307,1.4039 0.980272,2.10965 0.317177,0.70576 0.624541,1.41375 0.922458,2.124 0.297934,0.71024 0.586435,1.42306 0.865157,2.13746 0.278714,0.7144 0.547682,1.43059 0.807287,2.1488 0.259611,0.71824 0.50997,1.43847 0.750571,2.16021 0.240575,0.72174 0.471828,1.44531 0.693472,2.17023 0.221662,0.7249 0.433231,1.45103 0.636023,2.1788 0.03,0.10776 0.05678,0.21594 0.08635,0.32377 0.02964,-0.10787 0.05608,-0.21606 0.08612,-0.32382 0.202808,-0.72777 0.414543,-1.45394 0.636191,-2.17885 0.221648,-0.72491 0.453185,-1.44832 0.693773,-2.17007 0.240584,-0.72174 0.490532,-1.44197 0.75013,-2.1602 0.25961,-0.71824 0.528875,-1.4347 0.807596,-2.1491 0.278715,-0.71441 0.567038,-1.42662 0.864954,-2.13687 0.297904,-0.71024 0.605332,-1.41818 0.922523,-2.12393 0.317196,-0.70576 0.643719,-1.40934 0.980286,-2.11027 0.33657,-0.70095 0.68308,-1.39959 1.039116,-2.0954 0.356032,-0.6958 0.7216,-1.38885 1.097181,-2.07917 0.375585,-0.69033 0.760934,-1.37792 1.156141,-2.06244 0.395215,-0.68453 0.797983,-1.36206 1.208047,-2.03246 0.410053,-0.67043 0.827467,-1.33355 1.252041,-1.98979 0.424557,-0.65622 0.856354,-1.30565 1.295101,-1.94759 0.438747,-0.64195 0.884805,-1.27652 1.337407,-1.90409 0.452615,-0.62759 0.911978,-1.24777 1.378118,-1.86089 0.466123,-0.61312 0.938763,-1.21894 1.418093,-1.81751 0.47934,-0.59858 0.9652,-1.19002 1.45739,-1.77395 0.49221,-0.58395 0.99098,-1.1605 1.49573,-1.72973 0.50475,-0.56923 1.01548,-1.13146 1.53245,-1.68586 0.51697,-0.55442 1.03998,-1.10087 1.56884,-1.64039 0.0783,-0.0799 0.15881,-0.15693 0.23738,-0.23647 -0.10818,0.0283 -0.2152,0.0592 -0.32357,0.0871 -0.73167,0.18824 -1.4663,0.3681 -2.20491,0.5386 -0.73863,0.17051 -1.48087,0.33201 -2.22621,0.48453 -0.74534,0.15251 -1.49428,0.2958 -2.24609,0.4301 -0.75181,0.13429 -1.506511,0.25945 -2.264568,0.37527 -0.758044,0.11583 -1.51916,0.22262 -2.283215,0.31973 -0.748589,0.0952 -1.500133,0.18016 -2.254237,0.25713 -0.01512,0.002 -0.03072,0.004 -0.04622,0.006 -0.01512,0.002 -0.03022,0.003 -0.04535,0.004 -0.754945,0.0763 -1.512218,0.144 -2.272447,0.20184 -0.775326,0.059 -1.553928,0.10856 -2.334515,0.14813 -0.780587,0.0396 -1.563156,0.0692 -2.348793,0.0891 -0.78563,0.0199 -1.573816,0.0301 -2.364232,0.0301 -0.790426,0 -1.578923,-0.0104 -2.364559,-0.0303 -0.78562,-0.0199 -1.568616,-0.0493 -2.349212,-0.0889 -0.780592,-0.0396 -1.558773,-0.0892 -2.334089,-0.1482 -0.775307,-0.059 -1.547624,-0.12783 -2.317416,-0.20601 -0.769567,-0.0782 -1.53675,-0.16602 -2.300566,-0.26311 -2.21e-4,-3e-5 -4.84e-4,2.2e-4 -7.1e-4,1.9e-4 -0.764043,-0.0971 -1.524764,-0.20385 -2.282807,-0.3197 -0.758051,-0.11582 -1.512886,-0.24056 -2.264684,-0.37485 -0.751821,-0.13429 -1.500969,-0.27795 -2.246308,-0.43048 -0.74533,-0.15253 -1.487317,-0.31385 -2.225923,-0.48437 -0.738622,-0.17049 -1.473195,-0.35017 -2.204866,-0.53842 -0.108356,-0.0279 -0.21558,-0.059 -0.323748,-0.0873 z" />
      <path
         id="path18971"
         style="fill:#3ea57b;fill-opacity:1;stroke:none;stroke-width:2.11999;stroke-dasharray:2.11999, 2.11999;stroke-opacity:1;paint-order:stroke fill markers"
         d="m 43.900529,171.10296 c 0.107879,0.0296 0.216359,0.0559 0.324028,0.0863 0.727661,0.20325 1.45376,0.41448 2.178671,0.63616 0.724902,0.22166 1.448141,0.45294 2.169891,0.69349 0.721741,0.24061 1.442368,0.49073 2.160597,0.75035 0.718222,0.25963 1.434301,0.52899 2.148703,0.80769 0.71441,0.2787 1.426566,0.56664 2.136827,0.86455 0.710224,0.29793 1.418143,0.60521 2.123894,0.92242 0.705769,0.31718 1.40954,0.64426 2.11047,0.98082 0.700957,0.33657 1.39969,0.68318 2.095479,1.0392 0.695819,0.35601 1.388618,0.72101 2.078941,1.09659 0.690328,0.37558 1.377876,0.76134 2.062389,1.15654 0.684521,0.39523 1.362027,0.79815 2.032441,1.20819 0.670427,0.41005 1.333808,0.82758 1.990078,1.25209 0.65622,0.42459 1.305721,0.85627 1.947683,1.295 0.641938,0.43875 1.276185,0.88428 1.903765,1.33688 0.627563,0.45261 1.247743,0.91207 1.860872,1.37821 0.613139,0.46611 1.219398,0.93918 1.817978,1.41851 0.598573,0.47933 1.189602,0.96509 1.773531,1.45727 0.58395,0.49221 1.160882,0.99077 1.730119,1.49552 0.569214,0.50475 1.13127,1.01576 1.685679,1.53273 0.554415,0.51695 1.100704,1.04002 1.640212,1.56889 0.07986,0.0783 0.157143,0.15862 0.236666,0.23722 -0.02827,-0.10824 -0.05946,-0.21516 -0.08733,-0.3235 -0.188248,-0.73167 -0.367965,-1.46642 -0.538467,-2.20504 -0.170502,-0.73861 -0.33169,-1.48087 -0.48421,-2.22622 -0.152518,-0.74533 -0.296172,-1.49405 -0.430468,-2.24585 -0.134291,-0.75182 -0.259331,-1.50692 -0.375152,-2.26497 -0.11583,-0.75806 -0.22224,-1.51901 -0.319362,-2.28306 -0.09713,-0.76404 -0.184858,-1.53085 -0.263037,-2.30064 -0.07818,-0.76981 -0.147193,-1.54239 -0.206183,-2.31769 -0.059,-0.77533 -0.10823,-1.55362 -0.147799,-2.33423 -0.03957,-0.7806 -0.0695,-1.56358 -0.0894,-2.34921 -0.0199,-0.78563 -0.02997,-1.57378 -0.02997,-2.36419 2e-6,-0.79043 0.01004,-1.57857 0.02997,-2.36419 0.0199,-0.78563 0.04983,-1.56862 0.0894,-2.34923 0.03957,-0.78058 0.0888,-1.5589 0.147795,-2.33421 0.05899,-0.77532 0.128004,-1.5479 0.206184,-2.31769 0.07818,-0.76982 0.165911,-1.53659 0.26304,-2.30064 0.09711,-0.76404 0.203523,-1.52501 0.31935,-2.28306 0.11583,-0.75805 0.240877,-1.51318 0.375161,-2.26498 0.134292,-0.75182 0.277964,-1.50051 0.430476,-2.24585 0.152511,-0.74535 0.313701,-1.48762 0.48421,-2.22623 0.170499,-0.73862 0.350214,-1.47337 0.538461,-2.20503 0.02786,-0.10835 0.05907,-0.21531 0.08734,-0.32348 -0.07954,0.0786 -0.156769,0.15887 -0.23667,0.23721 -0.539525,0.52886 -1.085803,1.05194 -1.640208,1.5689 -0.554418,0.51698 -1.116466,1.02796 -1.68569,1.53272 -0.569228,0.50475 -1.146184,1.00331 -1.730121,1.49552 -0.583941,0.4922 -1.174951,0.97795 -1.773538,1.45728 -0.59857,0.47933 -1.204321,0.95237 -1.817457,1.4185 -0.600697,0.45674 -1.209074,0.90609 -1.823662,1.3498 -0.01209,0.009 -0.0246,0.0188 -0.03703,0.0283 -0.0121,0.009 -0.02467,0.0177 -0.03727,0.0261 -0.615651,0.44355 -1.237619,0.88081 -1.867077,1.31102 -0.641952,0.43876 -1.291461,0.87098 -1.947684,1.29554 -0.656208,0.42459 -1.319133,0.84151 -1.989564,1.25156 -0.670426,0.41005 -1.347915,0.81297 -2.032435,1.20818 -0.684529,0.39522 -1.372588,0.78046 -2.062918,1.15604 -0.690317,0.37558 -1.383112,0.74161 -2.078928,1.09762 -0.695812,0.356 -1.394537,0.70213 -2.09548,1.0387 -0.700936,0.33655 -1.404197,0.6631 -2.109946,0.98029 -0.705565,0.31707 -1.413875,0.6246 -2.123904,0.92243 -2.06e-4,8e-5 -3.09e-4,4.3e-4 -5.2e-4,5.2e-4 -0.71023,0.29793 -1.422409,0.58584 -2.136819,0.86453 -0.714401,0.27873 -1.430477,0.54811 -2.148698,0.80772 -0.718241,0.25961 -1.438853,0.50977 -2.1606,0.75034 -0.72174,0.24057 -1.444979,0.47186 -2.169891,0.69349 -0.72491,0.22166 -1.450909,0.43334 -2.17868,0.63614 -0.107789,0.03 -0.216198,0.0567 -0.324024,0.0863 z" />
      <path
         id="path18973"
         style="fill:#00a0ba;fill-opacity:1;stroke:none;stroke-width:2.11999;stroke-dasharray:2.11999, 2.11999;stroke-opacity:1;paint-order:stroke fill markers"
         d="m 61.163827,235.56266 c 0.108226,-0.0283 0.215322,-0.0598 0.323766,-0.0873 0.731798,-0.18781 1.466233,-0.36793 2.204865,-0.53841 0.738613,-0.17048 1.480596,-0.33181 2.225925,-0.48436 0.745351,-0.1525 1.494493,-0.2962 2.246307,-0.43048 0.751814,-0.13426 1.506636,-0.25903 2.264677,-0.37487 0.758047,-0.11584 1.518762,-0.22256 2.282821,-0.31969 0.764037,-0.0971 1.530753,-0.18495 2.300556,-0.26311 0.769804,-0.0782 1.542828,-0.14682 2.318131,-0.20582 0.775331,-0.059 1.553757,-0.10819 2.334338,-0.14776 0.780602,-0.0396 1.563083,-0.0699 2.348711,-0.0898 0.785631,-0.0199 1.573945,-0.0296 2.364351,-0.0296 0.790427,2e-5 1.578625,0.0102 2.36424,0.0301 0.785632,0.0199 1.568902,0.0498 2.349503,0.0893 0.780599,0.0396 1.558923,0.0887 2.334243,0.14766 0.77531,0.059 1.547349,0.12772 2.317149,0.20589 0.769791,0.0782 1.536612,0.16601 2.300668,0.26313 0.764049,0.0971 1.525619,0.20366 2.28367,0.31948 0.758044,0.11583 1.51277,0.24099 2.264562,0.37527 0.75182,0.13429 1.50073,0.27759 2.24608,0.4301 0.74533,0.15252 1.48759,0.31403 2.2262,0.48454 0.73862,0.17048 1.47325,0.35033 2.20491,0.53859 0.10832,0.0279 0.2154,0.0588 0.32357,0.0871 -0.0786,-0.0796 -0.15907,-0.15661 -0.23738,-0.2365 -0.52886,-0.53952 -1.05187,-1.08597 -1.56884,-1.64038 -0.51697,-0.55441 -1.02769,-1.11663 -1.53245,-1.68586 -0.50475,-0.56922 -1.00352,-1.1458 -1.49572,-1.72973 -0.49221,-0.58395 -0.97804,-1.17537 -1.45737,-1.77395 -0.47935,-0.59858 -0.95197,-1.20438 -1.41811,-1.8175 -0.466137,-0.61312 -0.925516,-1.23333 -1.378116,-1.8609 -0.452611,-0.62758 -0.898668,-1.26215 -1.337405,-1.90408 -0.438761,-0.64196 -0.87054,-1.29136 -1.295113,-1.94761 -0.424568,-0.65623 -0.841979,-1.31935 -1.252027,-1.98977 -0.410049,-0.67043 -0.812845,-1.34795 -1.20805,-2.03247 -0.395214,-0.68453 -0.78059,-1.3721 -1.15614,-2.06243 -0.375582,-0.69033 -0.741156,-1.38338 -1.097193,-2.07919 -0.356021,-0.69579 -0.702547,-1.39445 -1.039111,-2.09539 -0.336573,-0.70094 -0.663095,-1.40452 -0.980284,-2.11027 -0.317204,-0.70577 -0.624612,-1.41368 -0.922521,-2.12393 -0.29792,-0.71023 -0.586249,-1.42246 -0.864964,-2.13686 -0.278714,-0.71441 -0.547985,-1.43089 -0.807591,-2.14911 -0.25961,-0.71824 -0.509532,-1.43846 -0.750122,-2.1602 -0.240597,-0.72175 -0.472137,-1.44517 -0.693777,-2.17008 -0.221654,-0.72491 -0.433391,-1.45108 -0.636194,-2.17884 -0.03005,-0.10777 -0.0565,-0.216 -0.0861,-0.32381 -0.02958,0.10783 -0.05633,0.21597 -0.08636,0.32376 -0.202812,0.72777 -0.414363,1.45391 -0.636012,2.17881 -0.22165,0.72493 -0.452908,1.44847 -0.69349,2.17022 -0.240591,0.72174 -0.490969,1.44198 -0.750569,2.16022 -0.259607,0.71823 -0.528562,1.4344 -0.807289,2.14881 -0.278712,0.7144 -0.566787,1.42694 -0.864714,2.13719 -0.291848,0.69589 -0.594043,1.38923 -0.904437,2.08079 -0.006,0.0138 -0.0119,0.0286 -0.01792,0.043 -0.006,0.0138 -0.01252,0.0277 -0.01923,0.0412 -0.311394,0.69195 -0.631404,1.38161 -0.961426,2.06891 -0.336567,0.70096 -0.682948,1.40003 -1.038974,2.09582 -0.355998,0.69581 -0.721648,1.38833 -1.097233,2.07866 -0.375581,0.69033 -0.760843,1.37801 -1.15605,2.06253 -0.39521,0.68454 -0.798466,1.3622 -1.20852,2.03262 -0.410042,0.67042 -0.827005,1.33381 -1.251594,1.99003 -0.424591,0.65621 -0.85664,1.30533 -1.295389,1.94728 -0.438753,0.64193 -0.88452,1.27636 -1.337122,1.90393 -0.452502,0.62738 -0.912151,1.24786 -1.37814,1.8608 -1.38e-4,1.8e-4 -5.2e-5,5.3e-4 -1.9e-4,7.1e-4 -0.466112,0.61313 -0.938922,1.21856 -1.418274,1.81712 -0.479325,0.59859 -0.964775,1.18991 -1.456968,1.77385 -0.492209,0.58395 -0.991198,1.1609 -1.495964,1.73012 -0.50476,0.56921 -1.015459,1.13113 -1.532436,1.68552 -0.51696,0.55442 -1.039854,1.10074 -1.568722,1.64026 -0.07835,0.0799 -0.158883,0.1572 -0.237463,0.23675 z" />
      <path
         id="path18975"
         style="fill:#6e8dd5;fill-opacity:1;stroke:none;stroke-width:2.11999;stroke-dasharray:2.11999, 2.11999;stroke-opacity:1;paint-order:stroke fill markers"
         d="m 108.65243,282.8949 c 0.0796,-0.0786 0.15657,-0.15945 0.23674,-0.23749 0.53985,-0.52855 1.08583,-1.05175 1.64026,-1.56871 0.55442,-0.51695 1.11633,-1.02765 1.68553,-1.53243 0.56924,-0.50474 1.14616,-1.00376 1.73012,-1.49596 0.58396,-0.49218 1.17526,-0.97764 1.77383,-1.45698 0.59857,-0.47935 1.20401,-0.95213 1.81714,-1.41828 0.61312,-0.4661 1.23319,-0.92554 1.86078,-1.37813 0.62757,-0.45263 1.26272,-0.89857 1.90465,-1.33731 0.64195,-0.43876 1.2915,-0.87058 1.94772,-1.29514 0.65622,-0.42459 1.31871,-0.84207 1.98914,-1.25212 0.67042,-0.41005 1.34828,-0.81261 2.03279,-1.20781 0.68454,-0.3952 1.37223,-0.78048 2.06254,-1.15605 0.69032,-0.37558 1.38361,-0.74133 2.07938,-1.09742 0.69581,-0.356 1.39442,-0.70265 2.09534,-1.03925 0.70094,-0.33655 1.40391,-0.66306 2.10966,-0.98026 0.70576,-0.31718 1.41375,-0.62454 2.124,-0.92246 0.71023,-0.29793 1.42305,-0.58643 2.13746,-0.86516 0.7144,-0.27871 1.43059,-0.54768 2.1488,-0.80729 0.71824,-0.25961 1.43847,-0.50996 2.16021,-0.75056 0.72174,-0.24058 1.44531,-0.47184 2.17022,-0.69347 0.7249,-0.22167 1.45104,-0.43323 2.1788,-0.63603 0.10776,-0.03 0.21594,-0.0568 0.32377,-0.0863 -0.10787,-0.0296 -0.21606,-0.0561 -0.32382,-0.0861 -0.72777,-0.2028 -1.45394,-0.41454 -2.17885,-0.63619 -0.72491,-0.22164 -1.44832,-0.45318 -2.17007,-0.69377 -0.72174,-0.24058 -1.44197,-0.49053 -2.1602,-0.75013 -0.71824,-0.25961 -1.43469,-0.52888 -2.14909,-0.8076 -0.71442,-0.27871 -1.42662,-0.56704 -2.13687,-0.86495 -0.71025,-0.2979 -1.41819,-0.60533 -2.12394,-0.92252 -0.70576,-0.3172 -1.40934,-0.64372 -2.11026,-0.98028 -0.70096,-0.33658 -1.39959,-0.68309 -2.09541,-1.03912 -0.6958,-0.35604 -1.38885,-0.72161 -2.07917,-1.09719 -0.69033,-0.37558 -1.37792,-0.76093 -2.06243,-1.15614 -0.68454,-0.39521 -1.36207,-0.79798 -2.03247,-1.20805 -0.67043,-0.41005 -1.33355,-0.82746 -1.98979,-1.25203 -0.65622,-0.42456 -1.30565,-0.85636 -1.9476,-1.29511 -0.64194,-0.43874 -1.27651,-0.8848 -1.90408,-1.3374 -0.62759,-0.45261 -1.24777,-0.91198 -1.86089,-1.37812 -0.61312,-0.46612 -1.21894,-0.93876 -1.81751,-1.41809 -0.59858,-0.47934 -1.19001,-0.9652 -1.77395,-1.45739 -0.58395,-0.49221 -1.1605,-0.99098 -1.72973,-1.49573 -0.56924,-0.50475 -1.13147,-1.01548 -1.68587,-1.53245 -0.55441,-0.51697 -1.10086,-1.03998 -1.64037,-1.56884 -0.0799,-0.0783 -0.15693,-0.15881 -0.23647,-0.23738 0.0283,0.10819 0.0592,0.21519 0.0871,0.32359 0.18825,0.73167 0.36811,1.4663 0.53861,2.20491 0.17051,0.73863 0.332,1.48087 0.48453,2.22621 0.15251,0.74534 0.29579,1.49428 0.43009,2.24609 0.13429,0.75181 0.25946,1.50651 0.37528,2.26457 0.11583,0.75804 0.22261,1.51916 0.31973,2.28321 0.0952,0.74859 0.18015,1.50014 0.25713,2.25424 0.002,0.0149 0.004,0.0307 0.006,0.0462 0.002,0.0149 0.003,0.0302 0.004,0.0453 0.0763,0.75495 0.14398,1.51222 0.20183,2.27244 0.059,0.77533 0.10856,1.55394 0.14813,2.33452 0.0396,0.78059 0.0692,1.56316 0.0891,2.34879 0.0199,0.78564 0.0301,1.57382 0.0301,2.36423 1e-5,0.79043 -0.0104,1.57893 -0.0303,2.36456 -0.0199,0.78563 -0.0493,1.56862 -0.0889,2.34922 -0.0396,0.78059 -0.0892,1.55876 -0.1482,2.33408 -0.059,0.77531 -0.12784,1.54763 -0.20602,2.31742 -0.0782,0.76957 -0.16601,1.53675 -0.2631,2.30057 -3e-5,2.2e-4 2.2e-4,4.8e-4 1.9e-4,7.1e-4 -0.0971,0.76404 -0.20385,1.52476 -0.3197,2.2828 -0.11581,0.75806 -0.24057,1.51289 -0.37484,2.26469 -0.1343,0.75182 -0.27796,1.50097 -0.43049,2.24631 -0.15253,0.74533 -0.31385,1.48732 -0.48437,2.22592 -0.17049,0.73862 -0.35017,1.4732 -0.53842,2.20487 -0.0279,0.10837 -0.059,0.21558 -0.0873,0.32376 z" />
      <path
         id="path18977"
         style="fill:#ac78bd;fill-opacity:1;stroke:none;stroke-width:2.11999;stroke-dasharray:2.11999, 2.11999;stroke-opacity:1;paint-order:stroke fill markers"
         d="m 172.73449,299.93699 c 0.0296,-0.10787 0.0559,-0.21638 0.0863,-0.32405 0.20325,-0.72766 0.41449,-1.45375 0.63616,-2.17867 0.22166,-0.7249 0.45294,-1.44814 0.69349,-2.16989 0.24061,-0.72174 0.49073,-1.44236 0.75035,-2.1606 0.25964,-0.71822 0.52899,-1.43429 0.80769,-2.14869 0.2787,-0.71442 0.56664,-1.42658 0.86455,-2.13684 0.29793,-0.71022 0.60521,-1.41814 0.92242,-2.12389 0.31718,-0.70577 0.64426,-1.40954 0.98082,-2.11047 0.33657,-0.70095 0.68318,-1.39969 1.03921,-2.09548 0.356,-0.69582 0.721,-1.38861 1.09658,-2.07894 0.37558,-0.69032 0.76134,-1.37788 1.15654,-2.06239 0.39523,-0.68452 0.79815,-1.36203 1.20819,-2.03244 0.41005,-0.67042 0.82758,-1.33381 1.25209,-1.99008 0.42459,-0.65621 0.85628,-1.30572 1.29499,-1.94769 0.43876,-0.64193 0.88429,-1.27618 1.33689,-1.90376 0.45261,-0.62756 0.91207,-1.24774 1.37821,-1.86087 0.46611,-0.61313 0.93918,-1.21939 1.41851,-1.81798 0.47933,-0.59857 0.96509,-1.1896 1.45727,-1.77353 0.49221,-0.58395 0.99077,-1.16088 1.49552,-1.73011 0.50475,-0.56922 1.01575,-1.13128 1.53273,-1.68568 0.51695,-0.55442 1.04002,-1.1007 1.56888,-1.64021 0.0783,-0.0799 0.15861,-0.15716 0.23724,-0.23663 -0.10821,0.0283 -0.21516,0.0594 -0.32348,0.0873 -0.73167,0.18825 -1.46642,0.36797 -2.20504,0.53847 -0.73861,0.17051 -1.48087,0.33169 -2.22622,0.48421 -0.74533,0.15252 -1.49405,0.29617 -2.24585,0.43047 -0.75182,0.13429 -1.50692,0.25932 -2.26497,0.37514 -0.75806,0.11584 -1.51901,0.22224 -2.28306,0.31937 -0.76404,0.0971 -1.53085,0.18486 -2.30064,0.26304 -0.76981,0.0782 -1.54239,0.14719 -2.31768,0.20618 -0.77534,0.059 -1.55363,0.10823 -2.33424,0.1478 -0.7806,0.0396 -1.56358,0.0695 -2.34921,0.0894 -0.78563,0.0199 -1.57378,0.03 -2.36419,0.03 -0.79043,1e-5 -1.57857,-0.01 -2.36419,-0.03 -0.78564,-0.0199 -1.56862,-0.0498 -2.34922,-0.0894 -0.78059,-0.0396 -1.55891,-0.0888 -2.33423,-0.1478 -0.77531,-0.059 -1.54789,-0.128 -2.31768,-0.20618 -0.76982,-0.0782 -1.53659,-0.16591 -2.30064,-0.26304 -0.76404,-0.0971 -1.52501,-0.20352 -2.28306,-0.31935 -0.75805,-0.11583 -1.51317,-0.24088 -2.26498,-0.37516 -0.75182,-0.13429 -1.50051,-0.27796 -2.24585,-0.43047 -0.74535,-0.15251 -1.48762,-0.3137 -2.22623,-0.48421 -0.73862,-0.1705 -1.47337,-0.35022 -2.20502,-0.53847 -0.10835,-0.0279 -0.21531,-0.0591 -0.32348,-0.0873 0.0786,0.0795 0.15886,0.15676 0.23722,0.23668 0.52887,0.53952 1.05194,1.0858 1.56891,1.64021 0.51698,0.55441 1.02795,1.11647 1.53272,1.68569 0.50474,0.56923 1.0033,1.14619 1.49551,1.73012 0.4922,0.58394 0.97796,1.17495 1.45729,1.77354 0.47933,0.59857 0.95236,1.20432 1.4185,1.81745 0.45674,0.6007 0.90608,1.20909 1.3498,1.82367 0.009,0.0119 0.0188,0.0246 0.0283,0.037 0.009,0.0119 0.0177,0.0247 0.0261,0.0372 0.44355,0.61565 0.8808,1.23763 1.31101,1.86707 0.43876,0.64196 0.87098,1.29147 1.29554,1.94769 0.42459,0.65621 0.84151,1.31914 1.25156,1.98956 0.41005,0.67044 0.81298,1.34792 1.20818,2.03244 0.39523,0.68452 0.78046,1.37259 1.15604,2.06291 0.37558,0.69033 0.74162,1.38312 1.09762,2.07894 0.356,0.69581 0.70213,1.39452 1.0387,2.09547 0.33656,0.70094 0.6631,1.40421 0.98029,2.10996 0.31706,0.70556 0.62461,1.41387 0.92243,2.1239 9e-5,2e-4 4.3e-4,3e-4 5.2e-4,5.2e-4 0.29793,0.71023 0.58584,1.4224 0.86453,2.13681 0.27874,0.71441 0.54811,1.43049 0.80773,2.1487 0.2596,0.71825 0.50976,1.43886 0.75034,2.16061 0.24057,0.72174 0.47186,1.44498 0.69348,2.16988 0.22166,0.72491 0.43335,1.45092 0.63615,2.17869 0.03,0.1078 0.0567,0.2162 0.0863,0.32403 z" />
    </g>
  </g>
</svg>
